{"title":"Dr.Seuss The Lorax 2012 DVDRip LiNE XviD AC3 HQ Hive-CM8","uid":7447403,"size":1041619629,"categoryP":"video","categoryS":"movies","magnet":"?xt=urn:btih:3d0e2db018e2045368ff4743bfcaf55f293838c2&amp;dn=Dr.Seuss+The+Lorax+2012+DVDRip+LiNE+XviD+AC3+HQ+Hive-CM8&amp;tr=udp%3A%2F%2Ftracker.openbittorrent.com%3A80&amp;tr=udp%3A%2F%2Fopen.demonii.com%3A1337&amp;tr=udp%3A%2F%2Ftracker.coppersurfer.tk%3A6969&amp;tr=udp%3A%2F%2Fexodus.desync.com%3A6969","seeders":8,"leechers":0,"uploader":"tykoon123","files":-1,"time":1342408285,"description":"Poster: &lt;a href=&quot;\nhttp://imgh.us/loraxx600.jpg&quot; rel=&quot;nofollow&quot; target=&quot;_NEW&quot;&gt;\nhttp://imgh.us/loraxx600.jpg&lt;/a&gt;\n\nInfo:\n\nFormat : AVI\nFormat/Info : Audio Video Interleave\nFile size : 986 MiB\nDuration : 1h 22mn\nOverall bit rate : 1 665 Kbps\nWriting application : Nandub v1.0rc2\nWriting library : Nandub build 1853/release\n\nVideo\nID : 0\nFormat : MPEG-4 Visual\nFormat profile : Advanced Simple@L5\nFormat settings, BVOP : 2\nFormat settings, QPel : Yes\nFormat settings, GMC : No warppoints\nFormat settings, Matrix : Default (H.263)\nMuxing mode : Packed bitstream\nCodec ID : XVID\nCodec ID/Hint : XviD\nDuration : 1h 22mn\nBit rate : 1 399 Kbps\nWidth : 720 pixels\nHeight : 384 pixels\nDisplay aspect ratio : 1.85:1\nFrame rate : 25.000 fps\nColor space : YUV\nChroma subsampling : 4:2:0\nBit depth : 8 bits\nScan type : Progressive\nCompression mode : Lossy\nBits/(Pixel*Frame) : 0.202\nStream size : 828 MiB (84%)\nWriting library : XviD 1.2.1 (UTC 2008-12-04)\n\nAudio\nID : 1\nFormat : AC-3\nFormat/Info : Audio Coding 3\nMode extension : CM (complete main)\nFormat settings, Endianness : Big\nCodec ID : 2000\nDuration : 1h 22mn\nBit rate mode : Constant\nBit rate : 256 Kbps\nChannel(s) : 2 channels\nChannel positions : Front: L R\nSampling rate : 48.0 KHz\nBit depth : 16 bits\nCompression mode : Lossy\nDelay relative to video : 14ms\nStream size : 152 MiB (15%)\nAlignment : Split accross interleaves\nInterleave, duration : 40 ms (1.00 video frame)\nInterleave, preload duration : 500 ms\n\nCast:\nZac Efron ... Ted (voice)\nTaylor Swift ... Audrey (voice)\nDanny DeVito ... The Lorax (voice)\nEd Helms ... The Once-ler (voice)\nBetty White ... Grammy Norma (voice)\n\nSCREENS: &lt;a href=&quot;\nhttp://imgh.us/85898106.png&quot; rel=&quot;nofollow&quot; target=&quot;_NEW&quot;&gt;\nhttp://imgh.us/85898106.png&lt;/a&gt; &lt;a href=&quot;\nhttp://imgh.us/dsdsxw.png&quot; rel=&quot;nofollow&quot; target=&quot;_NEW&quot;&gt;\nhttp://imgh.us/dsdsxw.png&lt;/a&gt; &lt;a href=&quot;\nhttp://imgh.us/dsdsdsz.png&quot; rel=&quot;nofollow&quot; target=&quot;_NEW&quot;&gt;\nhttp://imgh.us/dsdsdsz.png&lt;/a&gt; &lt;a href=&quot;\nhttp://imgh.us/dsdsdsdsh.png&quot; rel=&quot;nofollow&quot; target=&quot;_NEW&quot;&gt;\nhttp://imgh.us/dsdsdsdsh.png&lt;/a&gt; &lt;a href=&quot;\nhttp://imgh.us/dsdsdsdsdsds.png&quot; rel=&quot;nofollow&quot; target=&quot;_NEW&quot;&gt;\nhttp://imgh.us/dsdsdsdsdsds.png&lt;/a&gt; &lt;a href=&quot;\nhttp://imgh.us/dsdsdsdsdsdsds.png&quot; rel=&quot;nofollow&quot; target=&quot;_NEW&quot;&gt;\nhttp://imgh.us/dsdsdsdsdsdsds.png&lt;/a&gt; &lt;a href=&quot;\nhttp://imgh.us/dsdsdsdsdsdsdsds.png&quot; rel=&quot;nofollow&quot; target=&quot;_NEW&quot;&gt;\nhttp://imgh.us/dsdsdsdsdsdsdsds.png&lt;/a&gt;","torrent":{"xt":"urn:btih:3d0e2db018e2045368ff4743bfcaf55f293838c2","amp;dn":"Dr.Seuss+The+Lorax+2012+DVDRip+LiNE+XviD+AC3+HQ+Hive-CM8","amp;tr":["udp%3A%2F%2Ftracker.openbittorrent.com%3A80","udp%3A%2F%2Fopen.demonii.com%3A1337","udp%3A%2F%2Ftracker.coppersurfer.tk%3A6969","udp%3A%2F%2Fexodus.desync.com%3A6969"],"infoHash":"3d0e2db018e2045368ff4743bfcaf55f293838c2","infoHashBuffer":{"type":"Buffer","data":[61,14,45,176,24,226,4,83,104,255,71,67,191,202,245,95,41,56,56,194]},"announce":[],"urlList":[]}}